       <svg 
            class="godix-icon w-24 h-24 text-purple-600" 
            viewBox="0 0 100 100" 
            fill="currentColor" 
            xmlns="http://www.w3.org/2000/svg"
        >
        		<style>
        .godix-icon {
            transition: all 0.3s ease;
        }
        .godix-icon:hover {
            transform: scale(1.05);
            filter: drop-shadow(0 4px 6px rgba(139, 92, 246, 0.3));
        }
    </style>
       		<script src="https://cdn.tailwindcss.com"></script>
            <!-- Background Circle -->
            <circle 
                cx="50" 
                cy="50" 
                r="45" 
                class="text-purple-100"
                fill="currentColor"
            />
            
            <!-- Letter G -->
            <path 
                d="M35 50C35 41.7 41.7 35 50 35C58.3 35 65 41.7 65 50C65 58.3 58.3 65 50 65C46.5 65 43.3 63.7 40.8 61.5L45 57.3C46.8 58.8 49.1 60 50 60C55.5 60 60 55.5 60 50C60 44.5 55.5 40 50 40C44.5 40 40 44.5 40 50H45V55H35V50Z" 
                class="text-purple-600"
                fill="currentColor"
            />
            
            <!-- Letter D (styled as "x" for GoDix) -->
            <path 
                d="M70 30L60 40L70 50L60 60L70 70L60 60L50 70L40 60L30 70L40 60L30 50L40 40L30 30L40 40L50 30L60 40L70 30Z" 
                class="text-purple-800 opacity-80"
                fill="currentColor"
            />
            
            <!-- Optional decorative elements -->
            <circle 
                cx="50" 
                cy="50" 
                r="40" 
                class="text-white"
                fill="currentColor"
            />
        </svg>
        
        <!-- Alternative simpler version -->
        <svg 
            class="godix-icon w-24 h-24 text-purple-600 mt-8" 
            viewBox="0 0 100 100" 
            fill="currentColor" 
            xmlns="http://www.w3.org/2000/svg"
        >
            <!-- Modern G + x combo -->
            <path 
                d="M50 20C33.4 20 20 33.4 20 50C20 66.6 33.4 80 50 80C66.6 80 80 66.6 80 50C80 33.4 66.6 20 50 20ZM50 30C61 30 70 39 70 50C70 61 61 70 50 70C39 70 30 61 30 50C30 39 39 30 50 30ZM40 50C40 45.6 43.6 42 48 42H52V48H48V52H54C56.2 52 58 50.2 58 48V44C58 41.8 56.2 40 54 40H48C43.6 40 40 43.6 40 48V50ZM60 40L55 45L60 50L55 55L60 60L55 55L50 60L45 55L40 60L45 55L40 50L45 45L40 40L45 45L50 40L55 45L60 40Z" 
                fill="currentColor"
            />
        </svg>